<svg xmlns="http://www.w3.org/2000/svg" width="1200" height="630" viewBox="0 0 1200 630">
  <rect width="1200" height="630" fill="#ffffff"/>
  <rect x="80" y="80" width="96" height="96" rx="22" fill="#000000"/>
  <path fill="#ffffff" d="M151.2 102.5c-4.4 0-8 1.2-10.8 3.2C135.2 102.5 128.6 101 121.2 101c-14.8 0-26 10.8-26 24.8 0 6 .2 11.2 5.6 15.6-.4 1.6-.8 3.6-.8 5.6 0 6.8 4 12 9.6 14 1.2 2.4 4 4 7.2 4 4.8 0 8.4-3.6 8.4-8 0-1.2 0-2-.4-3.2l4.4-2.4c1.6 4 4.8 6.8 8.8 7.6l2.8 8.4c.4 1.6 2 2.4 3.6 2 1.6-.4 2.4-2 2-3.6l-2.4-7.6c4-1.2 7.2-4.4 8-8.8l6.4-28.4c.8-4.4-1.6-14-5.6-18Z"/>
  <text x="196" y="148" font-family="Arial, Helvetica, sans-serif" font-size="56" font-weight="800" fill="#000000">ElephantLabs</text>
  <text x="80" y="300" font-family="Arial, Helvetica, sans-serif" font-size="88" font-weight="800" fill="#000000">Membuat teks</text>
  <text x="80" y="400" font-family="Arial, Helvetica, sans-serif" font-size="88" font-weight="800" fill="#000000">jadi suara</text>
  <text x="80" y="470" font-family="Arial, Helvetica, sans-serif" font-size="36" fill="#525252">TTS gratis — converter teks ke suara MP3 tanpa daftar</text>
  <rect x="80" y="510" width="180" height="56" rx="28" fill="#000000"/>
  <text x="170" y="546" font-family="Arial, Helvetica, sans-serif" font-size="26" font-weight="700" fill="#ffffff" text-anchor="middle">Coba Gratis</text>
</svg>
